<svg xmlns="http://www.w3.org/2000/svg" viewBox="0 0 459.7 145.92"><defs><style>.cls-1{fill:#636b70;}.cls-1,.cls-2{fill-rule:evenodd;}.cls-2{fill:#0073c6;}</style></defs><title>CZ_SVG</title><g id="Layer_2" data-name="Layer 2"><g id="Vrstva_1" data-name="Vrstva 1"><path class="cls-1" d="M65.7,24.34V87.42h-8V76.58a35.06,35.06,0,0,1-11.46,9.34A31.11,31.11,0,0,1,32.36,89,30.84,30.84,0,0,1,9.48,79.33,32.6,32.6,0,0,1,0,55.7,32,32,0,0,1,9.58,32.41a31.2,31.2,0,0,1,23-9.69,29.66,29.66,0,0,1,14,3.3,32.52,32.52,0,0,1,11.07,9.91V24.34ZM33.23,30.55A24.43,24.43,0,0,0,11.58,43.26a25.69,25.69,0,0,0,0,25.51,25.1,25.1,0,0,0,9.2,9.48,24.1,24.1,0,0,0,12.37,3.37,25.38,25.38,0,0,0,12.64-3.36A23.23,23.23,0,0,0,55,69.16a25.79,25.79,0,0,0,3.23-12.92A25.18,25.18,0,0,0,51,37.91a23.89,23.89,0,0,0-17.76-7.36ZM81.86,0H90V49.75L119.2,24.34h11.93L96.52,54.44l36.65,33H121.69L90,59.07V87.42H81.86V0ZM200.72,37.46l-6.43,4c-5.58-7.38-13.16-11.08-22.8-11.08-7.67,0-14.07,2.47-19.15,7.42a24.17,24.17,0,0,0-7.62,18,25.72,25.72,0,0,0,3.5,13,24.46,24.46,0,0,0,9.62,9.44,29.15,29.15,0,0,0,36.45-7.71l6.43,4.23a30.42,30.42,0,0,1-12.15,10.53A38.94,38.94,0,0,1,171.22,89q-15,0-24.82-9.49a31,31,0,0,1-9.85-23.13,32.81,32.81,0,0,1,4.61-17,32.33,32.33,0,0,1,12.66-12.27,37,37,0,0,1,18-4.41,39.05,39.05,0,0,1,12.09,1.91,34.4,34.4,0,0,1,9.88,5,27.08,27.08,0,0,1,6.9,7.84Zm87.51-13.12h8.11V35.66a33.85,33.85,0,0,1,10.79-9.72A26.64,26.64,0,0,1,320,22.72a22.33,22.33,0,0,1,12.54,3.6A21.27,21.27,0,0,1,340.63,36q2.61,6.09,2.61,19V87.42h-8.05V57.33c0-7.26-.32-12.12-.93-14.55-1-4.17-2.77-7.3-5.45-9.42a16.46,16.46,0,0,0-10.44-3.16,20,20,0,0,0-13.18,4.86,23,23,0,0,0-7.68,12.08q-1.15,4.68-1.17,17.15V87.42h-8.11V24.34ZM365.69.93h8.2V24.34h12.86v7H373.89V87.42h-8.2V31.3H354.63v-7h11.06V.93Zm94,23.41V87.42h-8V76.58a35.06,35.06,0,0,1-11.46,9.34,32,32,0,0,1-36.77-6.59A32.6,32.6,0,0,1,394,55.7a32,32,0,0,1,9.58-23.29,31.21,31.21,0,0,1,23-9.69,29.72,29.72,0,0,1,14,3.3,32.58,32.58,0,0,1,11.06,9.91V24.34Zm-32.47,6.21a24.43,24.43,0,0,0-21.65,12.71,25.63,25.63,0,0,0,0,25.51,25.1,25.1,0,0,0,9.2,9.48,24.07,24.07,0,0,0,12.37,3.37,25.35,25.35,0,0,0,12.64-3.36,23.32,23.32,0,0,0,9.19-9.1,25.89,25.89,0,0,0,3.22-12.92A25.17,25.17,0,0,0,445,37.91,23.93,23.93,0,0,0,427.23,30.55Z"/><path class="cls-2" d="M276.45,60.47H225.59a16.94,16.94,0,0,0,5.9,10.69q4.77,4,12.19,4a21.1,21.1,0,0,0,15.25-6.21l13.34,6.28a31.57,31.57,0,0,1-11.95,10.46A37.3,37.3,0,0,1,243.79,89Q229,89,219.63,79.69t-9.34-23.45c0-9.64,3.11-17.61,9.3-24s14-9.53,23.33-9.53q14.91,0,24.24,9.53t9.34,25.19l-.05,3ZM260.55,48a15.92,15.92,0,0,0-6.17-8.58,17.93,17.93,0,0,0-10.7-3.31,18.94,18.94,0,0,0-11.6,3.72Q229,42.16,226.28,48Z"/><path class="cls-2" d="M4,124.67H15.37L6.56,138.46h8.53v1.77h-12l8.81-13.8H4v-1.76Zm33.31,0v15.56h-2v-2.68a8.64,8.64,0,0,1-2.83,2.31,7.9,7.9,0,0,1-9.07-1.63,8,8,0,0,1-2.33-5.82,7.9,7.9,0,0,1,2.36-5.75,7.69,7.69,0,0,1,5.68-2.39,7.24,7.24,0,0,1,3.46.82,8,8,0,0,1,2.73,2.44v-2.86Zm-8,1.53a6.16,6.16,0,0,0-3.09.82,6,6,0,0,0-2.25,2.32,6.34,6.34,0,0,0,0,6.29A6.05,6.05,0,0,0,26.19,138a5.86,5.86,0,0,0,3,.84,6.27,6.27,0,0,0,3.11-.83,5.71,5.71,0,0,0,2.27-2.25,6.36,6.36,0,0,0,.79-3.18A6.19,6.19,0,0,0,33.63,128a5.88,5.88,0,0,0-4.38-1.82Zm16.61-7.53h2v8.79a8.5,8.5,0,0,1,2.68-2.39,6.51,6.51,0,0,1,3.16-.8,5.57,5.57,0,0,1,3.1.89,5.32,5.32,0,0,1,2,2.38,12.63,12.63,0,0,1,.64,4.68v8h-2v-7.42a19.32,19.32,0,0,0-.21-3.59,4,4,0,0,0-1.36-2.32,4,4,0,0,0-2.56-.78,4.92,4.92,0,0,0-3.25,1.2,5.65,5.65,0,0,0-1.9,3,20.47,20.47,0,0,0-.29,4.23v5.71h-2V118.67Zm21.5,6h2v2.27a7.27,7.27,0,0,1,1.93-2,3.77,3.77,0,0,1,2.12-.67,3.68,3.68,0,0,1,1.77.53l-1,1.69a2.83,2.83,0,0,0-1.06-.27,2.88,2.88,0,0,0-1.93.82,5.26,5.26,0,0,0-1.42,2.55A24.42,24.42,0,0,0,69.4,135v5.26h-2V124.67Zm29.16,0v15.56h-2v-2.68a8.64,8.64,0,0,1-2.83,2.31,7.88,7.88,0,0,1-9.06-1.63,8,8,0,0,1-2.34-5.82,7.9,7.9,0,0,1,2.36-5.75,7.71,7.71,0,0,1,5.68-2.39,7.22,7.22,0,0,1,3.46.82,8,8,0,0,1,2.73,2.44v-2.86Zm-8,1.53a6.16,6.16,0,0,0-3.09.82,6,6,0,0,0-2.25,2.32,6.34,6.34,0,0,0,0,6.29A6.2,6.2,0,0,0,85.45,138a5.89,5.89,0,0,0,3,.84,6.28,6.28,0,0,0,3.12-.83,5.75,5.75,0,0,0,2.26-2.25,6.36,6.36,0,0,0,.8-3.18A6.23,6.23,0,0,0,92.9,128a5.92,5.92,0,0,0-4.39-1.82Zm16.62-1.53h2v2.79a8.23,8.23,0,0,1,2.66-2.39,6.52,6.52,0,0,1,3.17-.8,5.52,5.52,0,0,1,3.1.89,5.24,5.24,0,0,1,2,2.39,12.6,12.6,0,0,1,.64,4.67v8h-2v-7.42a17.93,17.93,0,0,0-.23-3.59,3.65,3.65,0,0,0-3.92-3.1,4.94,4.94,0,0,0-3.25,1.2,5.65,5.65,0,0,0-1.9,3,20.82,20.82,0,0,0-.28,4.23v5.71h-2V124.67Zm22.66-6.4a1.66,1.66,0,0,1,1.65,1.66,1.56,1.56,0,0,1-.48,1.15,1.64,1.64,0,0,1-2.34,0,1.56,1.56,0,0,1-.48-1.15,1.66,1.66,0,0,1,1.65-1.66Zm-1,6.4h2v15.56h-2V124.67Zm25.35,3.24-1.58,1a6.67,6.67,0,0,0-5.62-2.73,6.52,6.52,0,0,0-4.73,1.83,6,6,0,0,0-1.88,4.45,6.28,6.28,0,0,0,.87,3.2,6,6,0,0,0,2.37,2.33,7.19,7.19,0,0,0,9-1.9l1.58,1a7.48,7.48,0,0,1-3,2.6,9.68,9.68,0,0,1-4.28.92,8.47,8.47,0,0,1-6.12-2.34,7.65,7.65,0,0,1-2.43-5.71,8.15,8.15,0,0,1,4.26-7.22,9.12,9.12,0,0,1,4.44-1.09,9.74,9.74,0,0,1,3,.47,8.65,8.65,0,0,1,2.43,1.23,6.54,6.54,0,0,1,1.7,1.94Zm-6.22-6.06h-2l-4.15-3.67h2.57l2.53,2.18,2.62-2.18h2.66l-4.25,3.67Zm14.46,2.82h2v2.79a8.23,8.23,0,0,1,2.66-2.39,6.53,6.53,0,0,1,3.18-.8,5.51,5.51,0,0,1,3.09.89,5.26,5.26,0,0,1,2,2.39,12.82,12.82,0,0,1,.64,4.67v8h-2v-7.42a17.18,17.18,0,0,0-.23-3.59,3.92,3.92,0,0,0-1.34-2.32,4,4,0,0,0-2.58-.78,4.89,4.89,0,0,0-3.24,1.2,5.59,5.59,0,0,0-1.9,3,20.6,20.6,0,0,0-.29,4.23v5.71h-2V124.67Zm21.66,0h2v15.56h-2V124.67Zm2-7.29h3.08l-4.22,4.41h-2l3.11-4.41Zm20.48,7.29h2v2.69a7.88,7.88,0,0,1,2.14-2.17,6.1,6.1,0,0,1,3.19-.92,5.44,5.44,0,0,1,2.15.44,4.53,4.53,0,0,1,1.65,1.19,6.4,6.4,0,0,1,1.12,2.1,7.46,7.46,0,0,1,2.5-2.78,6,6,0,0,1,3.24-1,5,5,0,0,1,2.85.82,4.88,4.88,0,0,1,1.84,2.27,12.11,12.11,0,0,1,.6,4.38v8.49h-2v-8.49a11,11,0,0,0-.36-3.44,3,3,0,0,0-1.22-1.51,3.67,3.67,0,0,0-2.07-.57,4.43,4.43,0,0,0-2.66.86,4.89,4.89,0,0,0-1.77,2.28,14.55,14.55,0,0,0-.56,4.78v6.09h-2v-8a13.3,13.3,0,0,0-.36-3.82,3.17,3.17,0,0,0-1.22-1.62,3.56,3.56,0,0,0-2.07-.6,4.53,4.53,0,0,0-2.6.83,4.94,4.94,0,0,0-1.78,2.26,12,12,0,0,0-.58,4.33v6.59h-2V124.67Zm44.68,10.4,1.68.88a9.07,9.07,0,0,1-1.91,2.63,7.72,7.72,0,0,1-2.44,1.53,8.76,8.76,0,0,1-3.08.52,7.43,7.43,0,0,1-5.95-2.49,8.45,8.45,0,0,1-2.14-5.65,8.31,8.31,0,0,1,1.82-5.27,7.41,7.41,0,0,1,6.15-3,7.66,7.66,0,0,1,6.35,3,8.4,8.4,0,0,1,1.72,5.32h-14a6.28,6.28,0,0,0,1.73,4.45,5.51,5.51,0,0,0,4.13,1.74,6.55,6.55,0,0,0,2.31-.42,5.84,5.84,0,0,0,1.91-1.1,9.26,9.26,0,0,0,1.7-2.21Zm0-4.19a6.69,6.69,0,0,0-1.17-2.56,5.48,5.48,0,0,0-2-1.55,6.2,6.2,0,0,0-2.65-.58,5.67,5.67,0,0,0-3.92,1.47,6.58,6.58,0,0,0-1.82,3.22Zm-4.86-9h-2l-4.15-3.67h2.58l2.53,2.18,2.61-2.18h2.66l-4.24,3.67Zm15.18,2.82h2v2.79a8.23,8.23,0,0,1,2.66-2.39,6.53,6.53,0,0,1,3.18-.8,5.51,5.51,0,0,1,3.09.89,5.26,5.26,0,0,1,2,2.39,12.6,12.6,0,0,1,.64,4.67v8h-2v-7.42a17.18,17.18,0,0,0-.23-3.59,3.92,3.92,0,0,0-1.34-2.32,4,4,0,0,0-2.57-.78,4.92,4.92,0,0,0-3.25,1.2,5.59,5.59,0,0,0-1.9,3,20.6,20.6,0,0,0-.29,4.23v5.71h-2V124.67Zm20.29,0h2.11l5.35,12,5.19-12h2.13l-9.28,21.25h-2.11l3-6.86-6.39-14.39Zm49.18,0v15.56h-2v-2.68a8.71,8.71,0,0,1-2.82,2.31,7.74,7.74,0,0,1-3.43.77,7.59,7.59,0,0,1-5.64-2.4,8,8,0,0,1-2.34-5.82,7.87,7.87,0,0,1,2.37-5.75,7.69,7.69,0,0,1,5.67-2.39,7.26,7.26,0,0,1,3.47.82,7.92,7.92,0,0,1,2.72,2.44v-2.86Zm-8,1.53a6.1,6.1,0,0,0-3.09.82,6,6,0,0,0-2.25,2.32,6.29,6.29,0,0,0-.84,3.14,6.36,6.36,0,0,0,.84,3.15,6.2,6.2,0,0,0,2.27,2.33,5.92,5.92,0,0,0,3.05.84,6.28,6.28,0,0,0,3.12-.83,5.78,5.78,0,0,0,2.27-2.25,6.36,6.36,0,0,0,.79-3.18,6.19,6.19,0,0,0-1.78-4.52A5.91,5.91,0,0,0,321,126.2Zm29.14-1.53h2v2.86a8.07,8.07,0,0,1,2.74-2.44,7.16,7.16,0,0,1,3.44-.82,7.71,7.71,0,0,1,5.68,2.39,7.9,7.9,0,0,1,2.36,5.75,8,8,0,0,1-2.34,5.82,7.88,7.88,0,0,1-9.06,1.63,8.71,8.71,0,0,1-2.82-2.31v8.37h-2V124.67Zm8,1.53a5.92,5.92,0,0,0-4.39,1.82,6.19,6.19,0,0,0-1.78,4.52,6.46,6.46,0,0,0,.79,3.18A5.74,5.74,0,0,0,355,138a6.31,6.31,0,0,0,3.12.83,5.88,5.88,0,0,0,3-.84,6.2,6.2,0,0,0,2.27-2.33,6.34,6.34,0,0,0,0-6.29,6,6,0,0,0-2.26-2.32,6.09,6.09,0,0,0-3.08-.82Zm15.74-7.53h2v21.56h-2V118.67Zm25.75,6v15.56h-2v-2.68a8.71,8.71,0,0,1-2.82,2.31,7.74,7.74,0,0,1-3.43.77,7.59,7.59,0,0,1-5.64-2.4,8,8,0,0,1-2.34-5.82,7.9,7.9,0,0,1,2.36-5.75,7.71,7.71,0,0,1,5.68-2.39,7.28,7.28,0,0,1,3.47.82,7.92,7.92,0,0,1,2.72,2.44v-2.86Zm-8,1.53a6.1,6.1,0,0,0-3.09.82,5.91,5.91,0,0,0-2.25,2.32,6.29,6.29,0,0,0-.84,3.14,6.36,6.36,0,0,0,.84,3.15,6.2,6.2,0,0,0,2.27,2.33,5.92,5.92,0,0,0,3.05.84,6.28,6.28,0,0,0,3.12-.83,5.69,5.69,0,0,0,2.26-2.25,6.66,6.66,0,0,0-1-7.7,5.91,5.91,0,0,0-4.38-1.82Zm18.35-7.3h2v5.77h3.17v1.72H412v13.84h-2V126.39h-2.73v-1.72h2.73V118.9Zm12.41,21.33V118.67h2v8.67a8.52,8.52,0,0,1,2.81-2.3,7.88,7.88,0,0,1,9.06,1.63,8,8,0,0,1,2.34,5.81,7.9,7.9,0,0,1-2.36,5.76,7.71,7.71,0,0,1-5.68,2.39,7.16,7.16,0,0,1-3.44-.82,7.94,7.94,0,0,1-2.73-2.44v2.86Zm8-1.53a6.16,6.16,0,0,0,3.09-.82,6.09,6.09,0,0,0,2.25-2.31,6.29,6.29,0,0,0,.83-3.15,6.39,6.39,0,0,0-.84-3.16,6.05,6.05,0,0,0-2.27-2.33,5.87,5.87,0,0,0-3-.84,6.25,6.25,0,0,0-3.13.84,5.71,5.71,0,0,0-2.27,2.25,6.38,6.38,0,0,0-.8,3.19,6.21,6.21,0,0,0,1.78,4.51,5.92,5.92,0,0,0,4.39,1.82Zm14.55-14H447l5.35,12,5.19-12h2.13l-9.28,21.25h-2.11l3-6.86Z"/></g></g></svg>